<?xml version="1.0" encoding="utf-8" standalone="no"?><!DOCTYPE svg PUBLIC "-//W3C//DTD SVG 20010904//EN" "http://www.w3.org/TR/2001/REC-SVG-20010904/DTD/svg10.dtd"><svg xmlns="http://www.w3.org/2000/svg" width="952" height="359" xmlns:xlink="http://www.w3.org/1999/xlink"><source><![CDATA[Client->Proxy socket: TCP 172.16.18.70:8080
Note right of Proxy socket: Activate the proxy unit
Proxy socket-->Proxy service: Socket activation
Note right of Proxy service: Activate the Container service
Proxy service->>Container service: TCP 127.0.0.1:8080]]></source><desc></desc><defs><marker viewBox="0 0 5 5" markerWidth="5" markerHeight="5" orient="auto" refX="5" refY="2.5" id="markerArrowBlock"><path d="M 0 0 L 5 2.5 L 0 5 z"></path></marker><marker viewBox="0 0 9.6 16" markerWidth="4" markerHeight="16" orient="auto" refX="9.6" refY="8" id="markerArrowOpen"><path d="M 9.6,8 1.92,16 0,13.7 5.76,8 0,2.286 1.92,0 9.6,8 z"></path></marker></defs><g class="title"></g><g class="actor"><path d="M10,20C49.8,22.9 70.2,17.1 81.7,20.0C79.9,37.3 83.4,46.1 81.7,63.0C64.5,65.9 35.1,60.1 10.0,63.0C11.7,40.3 8.3,26.9 10.0,20.0" stroke="#000000" fill="#ffffff" style="stroke-width: 2;"></path><text x="20" y="47.5" style="font-size: 16px; font-family: danielbd;"><tspan x="20">Client</tspan></text></g><g class="actor"><path d="M10,296C27.2,293.1 58.9,298.9 81.7,296.0C83.4,313.8 79.9,309.4 81.7,339.0C44.9,336.1 46.3,341.9 10.0,339.0C8.3,308.4 11.7,332.1 10.0,296.0" stroke="#000000" fill="#ffffff" style="stroke-width: 2;"></path><text x="20" y="323.5" style="font-size: 16px; font-family: danielbd;"><tspan x="20">Client</tspan></text></g><path d="M45.8,63.0C36.5,165.7 55.1,162.4 45.8,296.0" stroke="#000000" fill="none" style="stroke-width: 2;"></path><g class="actor"><path d="M206.5703125,20C234.6,25.4 238.7,14.6 340.5,20.0C342.2,45.5 338.8,43.7 340.5,63.0C228.0,57.6 319.1,68.4 206.6,63.0C204.9,48.8 208.3,48.4 206.6,20.0" stroke="#000000" fill="#ffffff" style="stroke-width: 2;"></path><text x="216.5703125" y="44" style="font-size: 16px; font-family: danielbd;"><tspan x="216.5703125">Proxy socket</tspan></text></g><g class="actor"><path d="M206.5703125,296C292.0,301.4 272.8,290.6 340.5,296.0C338.8,306.3 342.2,328.7 340.5,339.0C298.9,344.4 238.7,333.6 206.6,339.0C208.3,328.7 204.9,325.9 206.6,296.0" stroke="#000000" fill="#ffffff" style="stroke-width: 2;"></path><text x="216.5703125" y="320" style="font-size: 16px; font-family: danielbd;"><tspan x="216.5703125">Proxy socket</tspan></text></g><path d="M273.5,63.0C264.2,100.3 282.9,118.9 273.5,296.0" stroke="#000000" fill="none" style="stroke-width: 2;"></path><g class="actor"><path d="M460.421875,20C538.5,25.4 509.7,14.6 595.6,20.0C597.3,52.9 593.9,26.9 595.6,63.0C524.0,68.4 551.4,57.6 460.4,63.0C462.1,30.3 458.7,35.0 460.4,20.0" stroke="#000000" fill="#ffffff" style="stroke-width: 2;"></path><text x="470.421875" y="44" style="font-size: 16px; font-family: danielbd;"><tspan x="470.421875">Proxy service</tspan></text></g><g class="actor"><path d="M460.421875,296C492.9,290.6 563.1,301.4 595.6,296.0C597.3,328.7 593.9,328.7 595.6,339.0C574.0,333.6 520.0,344.4 460.4,339.0C462.1,332.1 458.7,328.7 460.4,296.0" stroke="#000000" fill="#ffffff" style="stroke-width: 2;"></path><text x="470.421875" y="320" style="font-size: 16px; font-family: danielbd;"><tspan x="470.421875">Proxy service</tspan></text></g><path d="M528.0,63.0C518.7,118.9 537.3,240.1 528.0,296.0" stroke="#000000" fill="none" style="stroke-width: 2;"></path><g class="actor"><path d="M754.6796875,20C794.9,13.3 882.0,26.7 922.3,20.0C920.5,30.8 924.0,45.4 922.3,63.0C884.4,56.3 781.5,69.7 754.7,63.0C756.4,37.6 753.0,31.7 754.7,20.0" stroke="#000000" fill="#ffffff" style="stroke-width: 2;"></path><text x="764.6796875" y="47" style="font-size: 16px; font-family: danielbd;"><tspan x="764.6796875">Container service</tspan></text></g><g class="actor"><path d="M754.6796875,296C869.8,289.3 814.5,302.7 922.3,296.0C924.0,306.3 920.5,326.7 922.3,339.0C794.9,345.7 872.8,332.3 754.7,339.0C753.0,306.3 756.4,319.5 754.7,296.0" stroke="#000000" fill="#ffffff" style="stroke-width: 2;"></path><text x="764.6796875" y="323" style="font-size: 16px; font-family: danielbd;"><tspan x="764.6796875">Container service</tspan></text></g><path d="M838.5,63.0C829.1,138.9 847.8,122.1 838.5,296.0" stroke="#000000" fill="none" style="stroke-width: 2;"></path><g class="signal"><text x="55.828125" y="93.5" style="font-size: 16px; font-family: danielbd;"><tspan x="55.828125">TCP 172.16.18.70:8080</tspan></text><path d="M45.8,100.0C218.9,109.1 237.1,90.9 273.5,100.0" stroke="#000000" fill="none" style="stroke-width: 2; marker-end: url(&quot;#markerArrowBlock&quot;);"></path></g><g class="note"><path d="M293.53125,120C351.4,128.6 345.0,111.4 508.0,120.0C509.4,145.8 506.6,148.6 508.0,154.0C421.9,162.6 327.8,145.4 293.5,154.0C294.9,132.1 292.2,137.6 293.5,120.0" stroke="#000000" fill="#ffffff" style="stroke-width: 2;"></path><text x="298.53125" y="140" style="font-size: 16px; font-family: danielbd;"><tspan x="298.53125">Activate the proxy unit</tspan></text></g><g class="signal"><text x="329.859375" y="184.5" style="font-size: 16px; font-family: danielbd;"><tspan x="328.859375">Socket activation</tspan></text><path d="M273.5,191.0C466.9,180.8 334.6,201.2 528.0,191.0" stroke="#000000" fill="none" style="stroke-width: 2; stroke-dasharray: 6, 2; marker-end: url(&quot;#markerArrowBlock&quot;);"></path></g><g class="note"><path d="M548,211C775.2,221.8 650.4,200.2 818.5,211.0C819.6,221.7 817.3,234.4 818.5,239.0C648.7,249.8 612.9,228.2 548.0,239.0C546.9,218.4 549.1,226.7 548.0,211.0" stroke="#000000" fill="#ffffff" style="stroke-width: 2;"></path><text x="553" y="231" style="font-size: 16px; font-family: danielbd;"><tspan x="553">Activate the Container service</tspan></text></g><g class="signal"><text x="592.4375" y="269.5" style="font-size: 16px; font-family: danielbd;"><tspan x="592.4375">TCP 127.0.0.1:8080</tspan></text><path d="M528.0,276.0C616.0,288.4 702.5,263.6 838.5,276.0" stroke="#000000" fill="none" style="stroke-width: 2; marker-end: url(&quot;#markerArrowOpen&quot;);"></path></g></svg>